{"asset":{"version":"2.0","generator":"Blockbench 4.12.5 glTF exporter"},"scenes":[{"nodes":[5],"name":"blockbench_export"}],"scene":0,"nodes":[{"translation":[0,-0.125,0],"name":"Floor TIle","mesh":0},{"translation":[0,0,-0.0625],"name":"DoorFrame","mesh":1},{"name":"Ceiling Tile","mesh":2},{"translation":[0.5,0,0],"name":"Door","mesh":3},{"translation":[-0.5,0,0],"name":"Door","children":[3]},{"children":[0,1,2,4]}],"bufferViews":[{"buffer":0,"byteOffset":0,"byteLength":288,"target":34962,"byteStride":12},{"buffer":0,"byteOffset":288,"byteLength":288,"target":34962,"byteStride":12},{"buffer":0,"byteOffset":576,"byteLength":192,"target":34962,"byteStride":8},{"buffer":0,"byteOffset":768,"byteLength":72,"target":34963},{"buffer":0,"byteOffset":840,"byteLength":1536,"target":34962,"byteStride":12},{"buffer":0,"byteOffset":2376,"byteLength":1536,"target":34962,"byteStride":12},{"buffer":0,"byteOffset":3912,"byteLength":1024,"target":34962,"byteStride":8},{"buffer":0,"byteOffset":4936,"byteLength":360,"target":34963},{"buffer":0,"byteOffset":5296,"byteLength":288,"target":34962,"byteStride":12},{"buffer":0,"byteOffset":5584,"byteLength":288,"target":34962,"byteStride":12},{"buffer":0,"byteOffset":5872,"byteLength":192,"target":34962,"byteStride":8},{"buffer":0,"byteOffset":6064,"byteLength":72,"target":34963},{"buffer":0,"byteOffset":6136,"byteLength":1344,"target":34962,"byteStride":12},{"buffer":0,"byteOffset":7480,"byteLength":1344,"target":34962,"byteStride":12},{"buffer":0,"byteOffset":8824,"byteLength":896,"target":34962,"byteStride":8},{"buffer":0,"byteOffset":9720,"byteLength":336,"target":34963},{"buffer":0,"byteOffset":10056,"byteLength":156},{"buffer":0,"byteOffset":10212,"byteLength":624},{"buffer":0,"byteOffset":10836,"byteLength":156},{"buffer":0,"byteOffset":10992,"byteLength":624},{"buffer":0,"byteOffset":11616,"byteLength":68},{"buffer":0,"byteOffset":11684,"byteLength":272},{"buffer":0,"byteOffset":11956,"byteLength":68},{"buffer":0,"byteOffset":12024,"byteLength":272}],"buffers":[{"byteLength":12296,"uri":"data:application/octet-stream;base64,"}],"accessors":[{"bufferView":0,"componentType":5126,"count":24,"max":[1,0.125,1],"min":[-1,0,-1],"type":"VEC3"},{"bufferView":1,"componentType":5126,"count":24,"max":[1,1,1],"min":[-1,-1,-1],"type":"VEC3"},{"bufferView":2,"componentType":5126,"count":24,"max":[1,1],"min":[0,0],"type":"VEC2"},{"bufferView":3,"componentType":5123,"count":36,"max":[23],"min":[0],"type":"SCALAR"},{"bufferView":4,"componentType":5126,"count":128,"max":[1,2,0.25],"min":[-1,0,-0.125],"type":"VEC3"},{"bufferView":5,"componentType":5126,"count":128,"max":[1,1,1],"min":[-1,-1,-1],"type":"VEC3"},{"bufferView":6,"componentType":5126,"count":128,"max":[0.4453125,0.5078125],"min":[0,0],"type":"VEC2"},{"bufferView":7,"componentType":5123,"count":180,"max":[127],"min":[0],"type":"SCALAR"},{"bufferView":8,"componentType":5126,"count":24,"max":[1,2.125,1],"min":[-1,2,-1],"type":"VEC3"},{"bufferView":9,"componentType":5126,"count":24,"max":[1,1,1],"min":[-1,-1,-1],"type":"VEC3"},{"bufferView":10,"componentType":5126,"count":24,"max":[1,1],"min":[0,0],"type":"VEC2"},{"bufferView":11,"componentType":5123,"count":36,"max":[23],"min":[0],"type":"SCALAR"},{"bufferView":12,"componentType":5126,"count":112,"max":[0.5625,1.75,0.0625],"min":[-0.5625,0,-0.0625],"type":"VEC3"},{"bufferView":13,"componentType":5126,"count":112,"max":[1,1,1],"min":[-1,-1,-1],"type":"VEC3"},{"bufferView":14,"componentType":5126,"count":112,"max":[0.640625,0.890625],"min":[0,0],"type":"VEC2"},{"bufferView":15,"componentType":5123,"count":168,"max":[111],"min":[0],"type":"SCALAR"},{"bufferView":16,"componentType":5126,"count":39,"max":[2],"min":[0],"type":"SCALAR"},{"bufferView":17,"componentType":5126,"count":39,"max":[0,0.7071067690849304,0,1],"min":[0,0,0,0.7071067690849304],"type":"VEC4"},{"bufferView":18,"componentType":5126,"count":39,"max":[2],"min":[0],"type":"SCALAR"},{"bufferView":19,"componentType":5126,"count":39,"max":[0,0,0,1],"min":[0,-0.7071067690849304,0,0.7071067690849304],"type":"VEC4"},{"bufferView":20,"componentType":5126,"count":17,"max":[1],"min":[0],"type":"SCALAR"},{"bufferView":21,"componentType":5126,"count":17,"max":[0,0.7071067690849304,0,1],"min":[0,0,0,0.7071067690849304],"type":"VEC4"},{"bufferView":22,"componentType":5126,"count":17,"max":[1],"min":[0],"type":"SCALAR"},{"bufferView":23,"componentType":5126,"count":17,"max":[0,0,0,1],"min":[0,-0.7071067690849304,0,0.7071067690849304],"type":"VEC4"}],"materials":[{"pbrMetallicRoughness":{"metallicFactor":0,"roughnessFactor":1,"baseColorTexture":{"index":0}},"alphaMode":"MASK","alphaCutoff":0.05,"doubleSided":true},{"pbrMetallicRoughness":{"metallicFactor":0,"roughnessFactor":1,"baseColorTexture":{"index":1}},"alphaMode":"MASK","alphaCutoff":0.05,"doubleSided":true},{"pbrMetallicRoughness":{"metallicFactor":0,"roughnessFactor":1,"baseColorTexture":{"index":2}},"alphaMode":"MASK","alphaCutoff":0.05,"doubleSided":true},{"pbrMetallicRoughness":{"metallicFactor":0,"roughnessFactor":1,"baseColorTexture":{"index":3}},"alphaMode":"MASK","alphaCutoff":0.05,"doubleSided":true}],"textures":[{"sampler":0,"source":0,"name":"texture"},{"sampler":1,"source":1,"name":"texture"},{"sampler":2,"source":2,"name":"texture"},{"sampler":3,"source":3,"name":"texture"}],"samplers":[{"magFilter":9728,"minFilter":9728,"wrapS":33071,"wrapT":33071},{"magFilter":9728,"minFilter":9728,"wrapS":33071,"wrapT":33071},{"magFilter":9728,"minFilter":9728,"wrapS":33071,"wrapT":33071},{"magFilter":9728,"minFilter":9728,"wrapS":33071,"wrapT":33071}],"images":[{"mimeType":"image/png","uri":"data:image/png;base64,"},{"mimeType":"image/png","uri":"data:image/png;base64,"},{"mimeType":"image/png","uri":"data:image/png;base64,"},{"mimeType":"image/png","uri":"data:image/png;base64,"}],"meshes":[{"primitives":[{"mode":4,"attributes":{"POSITION":0,"NORMAL":1,"TEXCOORD_0":2},"indices":3,"material":0}]},{"primitives":[{"mode":4,"attributes":{"POSITION":4,"NORMAL":5,"TEXCOORD_0":6},"indices":7,"material":1}]},{"primitives":[{"mode":4,"attributes":{"POSITION":8,"NORMAL":9,"TEXCOORD_0":10},"indices":11,"material":2}]},{"primitives":[{"mode":4,"attributes":{"POSITION":12,"NORMAL":13,"TEXCOORD_0":14},"indices":15,"material":3}]}],"animations":[{"name":"Open_In","samplers":[{"input":16,"output":17,"interpolation":"LINEAR"}],"channels":[{"sampler":0,"target":{"node":4,"path":"rotation"}}]},{"name":"Open_Out","samplers":[{"input":18,"output":19,"interpolation":"LINEAR"}],"channels":[{"sampler":0,"target":{"node":4,"path":"rotation"}}]},{"name":"Close_In","samplers":[{"input":20,"output":21,"interpolation":"LINEAR"}],"channels":[{"sampler":0,"target":{"node":4,"path":"rotation"}}]},{"name":"Close_Out","samplers":[{"input":22,"output":23,"interpolation":"LINEAR"}],"channels":[{"sampler":0,"target":{"node":4,"path":"rotation"}}]}]}